<svg id="Layer_1" data-name="Layer 1" xmlns="http://www.w3.org/2000/svg" viewBox="0 0 340.41 332"><defs><style>.cls-1{fill:#181616;fill-rule:evenodd;}</style></defs><path class="cls-1" d="M7199.49,7033.5a170.22,170.22,0,0,0-53.79,331.71c8.51,1.56,11.62-3.7,11.62-8.21,0-4-.15-14.74-.23-28.94-47.35,10.28-57.34-22.82-57.34-22.82-7.74-19.66-18.89-24.9-18.89-24.9C7065.4,7269.78,7082,7270,7082,7270c17.08,1.2,26.07,17.54,26.07,17.54,15.18,26,39.83,18.5,49.53,14.14,1.55-11,5.94-18.5,10.8-22.76-37.79-4.29-77.52-18.89-77.52-84.11,0-18.59,6.63-33.78,17.52-45.68-1.75-4.3-7.59-21.61,1.67-45,0,0,14.29-4.58,46.8,17.45a161.3,161.3,0,0,1,85.22,0c32.49-22,46.76-17.45,46.76-17.45,9.28,23.43,3.44,40.74,1.69,45,10.91,11.9,17.5,27.09,17.5,45.68,0,65.38-39.8,79.77-77.71,84,6.11,5.26,11.55,15.64,11.55,31.52,0,22.76-.21,41.11-.21,46.69,0,4.55,3.07,9.85,11.71,8.19a170.23,170.23,0,0,0-53.92-331.69Z" transform="translate(-7029.3 -7033.5)"/></svg>