<?xml version="1.0" encoding="UTF-8"?><svg id="a" xmlns="http://www.w3.org/2000/svg" viewBox="0 0 50 50"><path d="M21.48,23.52c-.45,1.08-1.5,1.84-2.74,1.84-1.64,0-2.97-1.33-2.97-2.97s1.33-2.97,2.97-2.97c1.47,0,2.64,1.09,2.88,2.5h1.87c0-.06-.03-.11-.04-.17-.19-2.45-2.22-4.39-4.72-4.39s-4.53,1.94-4.72,4.39c0,.06-.04,.12-.04,.18v12.72c0,.78,.63,1.41,1.41,1.41h6.69c.78,0,1.41-.63,1.41-1.41v-11.12h-2.01Z" style="fill:#2c3b59;"/><text transform="translate(3.88 25.71)" style="fill:#2c3b59; font-family:MyriadPro-Regular, Myriad Pro; font-size:15px;"><tspan x="0" y="0">H</tspan></text><text transform="translate(24.38 26.04)" style="fill:#2c3b59; font-family:MyriadPro-Regular, Myriad Pro; font-size:15px;"><tspan x="0" y="0" style="letter-spacing:0em;">t</tspan><tspan x="4.88" y="0">el</tspan></text><text transform="translate(16.22 33.63)" style="fill:#d9d9d9; font-family:MyriadPro-Regular, Myriad Pro; font-size:9px;"><tspan x="0" y="0">R</tspan></text><text transform="translate(24.04 34.6)" style="fill:#2c3b59; font-family:MyriadPro-Regular, Myriad Pro; font-size:9px;"><tspan x="0" y="0">eview</tspan></text></svg>